<svg id="visual" viewBox="0 0 960 540" width="960" height="540" xmlns="http://www.w3.org/2000/svg" xmlns:xlink="http://www.w3.org/1999/xlink" version="1.1"><rect x="0" y="0" width="960" height="540" fill="#002233"></rect><path d="M0 423L22.8 421.3C45.7 419.7 91.3 416.3 137 418.2C182.7 420 228.3 427 274 424.7C319.7 422.3 365.3 410.7 411.2 405.7C457 400.7 503 402.3 548.8 392.8C594.7 383.3 640.3 362.7 686 369.3C731.7 376 777.3 410 823 424.3C868.7 438.7 914.3 433.3 937.2 430.7L960 428L960 541L937.2 541C914.3 541 868.7 541 823 541C777.3 541 731.7 541 686 541C640.3 541 594.7 541 548.8 541C503 541 457 541 411.2 541C365.3 541 319.7 541 274 541C228.3 541 182.7 541 137 541C91.3 541 45.7 541 22.8 541L0 541Z" fill="#0066FF" stroke-linecap="round" stroke-linejoin="miter"></path></svg>